<mxfile host="app.diagrams.net" modified="2024-06-16T05:41:38.080Z" agent="Mozilla/5.0 (Windows NT 10.0; Win64; x64) AppleWebKit/537.36 (KHTML, like Gecko) Chrome/125.0.0.0 Safari/537.36" etag="uK40PPycSCqwnyHXtWNo" version="24.5.4" type="device">
  <diagram name="Page-1" id="gHyQf_i51Uh0sg_qcwM_">
    <mxGraphModel dx="2238" dy="1350" grid="1" gridSize="10" guides="1" tooltips="1" connect="1" arrows="1" fold="1" page="1" pageScale="1" pageWidth="850" pageHeight="1100" math="0" shadow="0">
      <root>
        <mxCell id="0" />
        <mxCell id="1" parent="0" />
        <mxCell id="1vpAeoFUaDSUoBecvZQN-39" value="" style="group" vertex="1" connectable="0" parent="1">
          <mxGeometry x="710" y="60.599999999999994" width="240" height="140" as="geometry" />
        </mxCell>
        <mxCell id="1vpAeoFUaDSUoBecvZQN-57" value="" style="group" vertex="1" connectable="0" parent="1vpAeoFUaDSUoBecvZQN-39">
          <mxGeometry width="240" height="140" as="geometry" />
        </mxCell>
        <mxCell id="1vpAeoFUaDSUoBecvZQN-12" value="" style="rounded=0;whiteSpace=wrap;html=1;" vertex="1" parent="1vpAeoFUaDSUoBecvZQN-57">
          <mxGeometry width="240" height="140" as="geometry" />
        </mxCell>
        <mxCell id="1vpAeoFUaDSUoBecvZQN-22" value="product_type" style="text;html=1;align=center;verticalAlign=middle;whiteSpace=wrap;rounded=0;strokeWidth=2;fontSize=15;" vertex="1" parent="1vpAeoFUaDSUoBecvZQN-57">
          <mxGeometry x="60" y="10" width="140" height="20" as="geometry" />
        </mxCell>
        <mxCell id="1vpAeoFUaDSUoBecvZQN-24" value="id" style="text;html=1;align=center;verticalAlign=middle;whiteSpace=wrap;rounded=0;strokeWidth=2;fontSize=15;" vertex="1" parent="1vpAeoFUaDSUoBecvZQN-57">
          <mxGeometry x="85" y="60" width="140" height="20" as="geometry" />
        </mxCell>
        <mxCell id="1vpAeoFUaDSUoBecvZQN-31" value="" style="endArrow=none;html=1;rounded=0;exitX=0.007;exitY=0.158;exitDx=0;exitDy=0;exitPerimeter=0;entryX=1.001;entryY=0.159;entryDx=0;entryDy=0;entryPerimeter=0;" edge="1" parent="1vpAeoFUaDSUoBecvZQN-57">
          <mxGeometry width="50" height="50" relative="1" as="geometry">
            <mxPoint x="2" y="40" as="sourcePoint" />
            <mxPoint x="240" y="40" as="targetPoint" />
          </mxGeometry>
        </mxCell>
        <mxCell id="1vpAeoFUaDSUoBecvZQN-32" value="PK" style="text;html=1;align=center;verticalAlign=middle;whiteSpace=wrap;rounded=0;fontSize=14;" vertex="1" parent="1vpAeoFUaDSUoBecvZQN-57">
          <mxGeometry x="20" y="60" width="40" height="20" as="geometry" />
        </mxCell>
        <mxCell id="1vpAeoFUaDSUoBecvZQN-37" value="type_name" style="text;html=1;align=center;verticalAlign=middle;whiteSpace=wrap;rounded=0;strokeWidth=2;fontSize=15;" vertex="1" parent="1vpAeoFUaDSUoBecvZQN-57">
          <mxGeometry x="85" y="100" width="140" height="30" as="geometry" />
        </mxCell>
        <mxCell id="1vpAeoFUaDSUoBecvZQN-30" value="" style="endArrow=none;html=1;rounded=0;exitX=0.007;exitY=0.158;exitDx=0;exitDy=0;exitPerimeter=0;entryX=1.001;entryY=0.159;entryDx=0;entryDy=0;entryPerimeter=0;" edge="1" parent="1vpAeoFUaDSUoBecvZQN-57">
          <mxGeometry width="50" height="50" relative="1" as="geometry">
            <mxPoint y="90" as="sourcePoint" />
            <mxPoint x="238" y="90" as="targetPoint" />
          </mxGeometry>
        </mxCell>
        <mxCell id="1vpAeoFUaDSUoBecvZQN-29" value="" style="endArrow=none;html=1;rounded=0;" edge="1" parent="1vpAeoFUaDSUoBecvZQN-57">
          <mxGeometry width="50" height="50" relative="1" as="geometry">
            <mxPoint x="70" y="140" as="sourcePoint" />
            <mxPoint x="70" y="40" as="targetPoint" />
          </mxGeometry>
        </mxCell>
        <mxCell id="1vpAeoFUaDSUoBecvZQN-69" value="" style="group" vertex="1" connectable="0" parent="1">
          <mxGeometry x="395" y="682.9000000000001" width="240" height="140" as="geometry" />
        </mxCell>
        <mxCell id="1vpAeoFUaDSUoBecvZQN-70" value="" style="group" vertex="1" connectable="0" parent="1vpAeoFUaDSUoBecvZQN-69">
          <mxGeometry width="240" height="140" as="geometry" />
        </mxCell>
        <mxCell id="1vpAeoFUaDSUoBecvZQN-71" value="" style="rounded=0;whiteSpace=wrap;html=1;" vertex="1" parent="1vpAeoFUaDSUoBecvZQN-70">
          <mxGeometry width="240" height="140" as="geometry" />
        </mxCell>
        <mxCell id="1vpAeoFUaDSUoBecvZQN-72" value="payment_methods" style="text;html=1;align=center;verticalAlign=middle;whiteSpace=wrap;rounded=0;strokeWidth=2;fontSize=15;" vertex="1" parent="1vpAeoFUaDSUoBecvZQN-70">
          <mxGeometry x="60" y="10" width="140" height="20" as="geometry" />
        </mxCell>
        <mxCell id="1vpAeoFUaDSUoBecvZQN-73" value="id" style="text;html=1;align=center;verticalAlign=middle;whiteSpace=wrap;rounded=0;strokeWidth=2;fontSize=15;" vertex="1" parent="1vpAeoFUaDSUoBecvZQN-70">
          <mxGeometry x="85" y="60" width="140" height="20" as="geometry" />
        </mxCell>
        <mxCell id="1vpAeoFUaDSUoBecvZQN-74" value="" style="endArrow=none;html=1;rounded=0;exitX=0.007;exitY=0.158;exitDx=0;exitDy=0;exitPerimeter=0;entryX=1.001;entryY=0.159;entryDx=0;entryDy=0;entryPerimeter=0;" edge="1" parent="1vpAeoFUaDSUoBecvZQN-70">
          <mxGeometry width="50" height="50" relative="1" as="geometry">
            <mxPoint x="2" y="40" as="sourcePoint" />
            <mxPoint x="240" y="40" as="targetPoint" />
          </mxGeometry>
        </mxCell>
        <mxCell id="1vpAeoFUaDSUoBecvZQN-75" value="PK" style="text;html=1;align=center;verticalAlign=middle;whiteSpace=wrap;rounded=0;fontSize=14;" vertex="1" parent="1vpAeoFUaDSUoBecvZQN-70">
          <mxGeometry x="20" y="60" width="40" height="20" as="geometry" />
        </mxCell>
        <mxCell id="1vpAeoFUaDSUoBecvZQN-76" value="payment_method_name" style="text;html=1;align=center;verticalAlign=middle;whiteSpace=wrap;rounded=0;strokeWidth=2;fontSize=15;" vertex="1" parent="1vpAeoFUaDSUoBecvZQN-70">
          <mxGeometry x="85" y="100" width="140" height="30" as="geometry" />
        </mxCell>
        <mxCell id="1vpAeoFUaDSUoBecvZQN-77" value="" style="endArrow=none;html=1;rounded=0;exitX=0.007;exitY=0.158;exitDx=0;exitDy=0;exitPerimeter=0;entryX=1.001;entryY=0.159;entryDx=0;entryDy=0;entryPerimeter=0;" edge="1" parent="1vpAeoFUaDSUoBecvZQN-70">
          <mxGeometry width="50" height="50" relative="1" as="geometry">
            <mxPoint y="90" as="sourcePoint" />
            <mxPoint x="238" y="90" as="targetPoint" />
          </mxGeometry>
        </mxCell>
        <mxCell id="1vpAeoFUaDSUoBecvZQN-78" value="" style="endArrow=none;html=1;rounded=0;" edge="1" parent="1vpAeoFUaDSUoBecvZQN-70">
          <mxGeometry width="50" height="50" relative="1" as="geometry">
            <mxPoint x="70" y="140" as="sourcePoint" />
            <mxPoint x="70" y="40" as="targetPoint" />
          </mxGeometry>
        </mxCell>
        <mxCell id="1vpAeoFUaDSUoBecvZQN-90" value="" style="group" vertex="1" connectable="0" parent="1">
          <mxGeometry x="30" y="580" width="240" height="380" as="geometry" />
        </mxCell>
        <mxCell id="1vpAeoFUaDSUoBecvZQN-130" value="" style="group" vertex="1" connectable="0" parent="1vpAeoFUaDSUoBecvZQN-90">
          <mxGeometry width="240" height="380" as="geometry" />
        </mxCell>
        <mxCell id="1vpAeoFUaDSUoBecvZQN-79" value="" style="rounded=0;whiteSpace=wrap;html=1;" vertex="1" parent="1vpAeoFUaDSUoBecvZQN-130">
          <mxGeometry width="240" height="380" as="geometry" />
        </mxCell>
        <mxCell id="1vpAeoFUaDSUoBecvZQN-81" value="users" style="text;html=1;align=center;verticalAlign=middle;whiteSpace=wrap;rounded=0;strokeWidth=2;fontSize=15;" vertex="1" parent="1vpAeoFUaDSUoBecvZQN-130">
          <mxGeometry x="50" y="9.267579737335835" width="140" height="29.23076923076923" as="geometry" />
        </mxCell>
        <mxCell id="1vpAeoFUaDSUoBecvZQN-82" value="id" style="text;html=1;align=center;verticalAlign=middle;whiteSpace=wrap;rounded=0;strokeWidth=2;fontSize=15;" vertex="1" parent="1vpAeoFUaDSUoBecvZQN-130">
          <mxGeometry x="70" y="54.68292682926829" width="140" height="28.870731707317074" as="geometry" />
        </mxCell>
        <mxCell id="1vpAeoFUaDSUoBecvZQN-83" value="nama_user" style="text;html=1;align=center;verticalAlign=middle;whiteSpace=wrap;rounded=0;strokeWidth=2;fontSize=15;" vertex="1" parent="1vpAeoFUaDSUoBecvZQN-130">
          <mxGeometry x="70" y="97.95121951219512" width="140" height="37.07317073170732" as="geometry" />
        </mxCell>
        <mxCell id="1vpAeoFUaDSUoBecvZQN-84" value="alamat" style="text;html=1;align=center;verticalAlign=middle;whiteSpace=wrap;rounded=0;strokeWidth=2;fontSize=15;" vertex="1" parent="1vpAeoFUaDSUoBecvZQN-130">
          <mxGeometry x="70" y="141.02439024390245" width="140" height="24.950243902439027" as="geometry" />
        </mxCell>
        <mxCell id="1vpAeoFUaDSUoBecvZQN-85" value="tanggal_lahir" style="text;html=1;align=center;verticalAlign=middle;whiteSpace=wrap;rounded=0;strokeWidth=2;fontSize=15;" vertex="1" parent="1vpAeoFUaDSUoBecvZQN-130">
          <mxGeometry x="70" y="176.68390243902442" width="140" height="29.58439024390244" as="geometry" />
        </mxCell>
        <mxCell id="1vpAeoFUaDSUoBecvZQN-86" value="status_user" style="text;html=1;align=center;verticalAlign=middle;whiteSpace=wrap;rounded=0;strokeWidth=2;fontSize=15;" vertex="1" parent="1vpAeoFUaDSUoBecvZQN-130">
          <mxGeometry x="70" y="217.90243902439025" width="140" height="28.518536585365855" as="geometry" />
        </mxCell>
        <mxCell id="1vpAeoFUaDSUoBecvZQN-87" value="PK" style="text;html=1;align=center;verticalAlign=middle;whiteSpace=wrap;rounded=0;fontSize=14;" vertex="1" parent="1vpAeoFUaDSUoBecvZQN-130">
          <mxGeometry x="10" y="54.68292682926829" width="40" height="28.870731707317074" as="geometry" />
        </mxCell>
        <mxCell id="1vpAeoFUaDSUoBecvZQN-88" value="" style="endArrow=none;html=1;rounded=0;exitX=0.007;exitY=0.158;exitDx=0;exitDy=0;exitPerimeter=0;entryX=1.001;entryY=0.159;entryDx=0;entryDy=0;entryPerimeter=0;" edge="1" parent="1vpAeoFUaDSUoBecvZQN-130">
          <mxGeometry width="50" height="50" relative="1" as="geometry">
            <mxPoint x="2" y="92.68577861163226" as="sourcePoint" />
            <mxPoint x="240" y="92.68577861163226" as="targetPoint" />
          </mxGeometry>
        </mxCell>
        <mxCell id="1vpAeoFUaDSUoBecvZQN-89" value="" style="endArrow=none;html=1;rounded=0;exitX=0.25;exitY=1;exitDx=0;exitDy=0;" edge="1" parent="1vpAeoFUaDSUoBecvZQN-130">
          <mxGeometry width="50" height="50" relative="1" as="geometry">
            <mxPoint x="60" y="380" as="sourcePoint" />
            <mxPoint x="60" y="46.34146341463415" as="targetPoint" />
          </mxGeometry>
        </mxCell>
        <mxCell id="1vpAeoFUaDSUoBecvZQN-80" value="" style="endArrow=none;html=1;rounded=0;exitX=0.01;exitY=0.116;exitDx=0;exitDy=0;exitPerimeter=0;entryX=1.004;entryY=0.113;entryDx=0;entryDy=0;entryPerimeter=0;" edge="1" parent="1vpAeoFUaDSUoBecvZQN-130" source="1vpAeoFUaDSUoBecvZQN-79" target="1vpAeoFUaDSUoBecvZQN-79">
          <mxGeometry width="50" height="50" relative="1" as="geometry">
            <mxPoint x="360" y="380" as="sourcePoint" />
            <mxPoint x="238" y="92.07692307692308" as="targetPoint" />
          </mxGeometry>
        </mxCell>
        <mxCell id="1vpAeoFUaDSUoBecvZQN-126" value="gender" style="text;html=1;align=center;verticalAlign=middle;whiteSpace=wrap;rounded=0;strokeWidth=2;fontSize=15;" vertex="1" parent="1vpAeoFUaDSUoBecvZQN-130">
          <mxGeometry x="69" y="257.9756097560976" width="140" height="28.518536585365855" as="geometry" />
        </mxCell>
        <mxCell id="1vpAeoFUaDSUoBecvZQN-128" value="created_at" style="text;html=1;align=center;verticalAlign=middle;whiteSpace=wrap;rounded=0;strokeWidth=2;fontSize=15;" vertex="1" parent="1vpAeoFUaDSUoBecvZQN-130">
          <mxGeometry x="70" y="297.0487804878049" width="140" height="28.518536585365855" as="geometry" />
        </mxCell>
        <mxCell id="1vpAeoFUaDSUoBecvZQN-129" value="updated_at" style="text;html=1;align=center;verticalAlign=middle;whiteSpace=wrap;rounded=0;strokeWidth=2;fontSize=15;" vertex="1" parent="1vpAeoFUaDSUoBecvZQN-130">
          <mxGeometry x="70" y="337.1219512195122" width="140" height="28.518536585365855" as="geometry" />
        </mxCell>
        <mxCell id="1vpAeoFUaDSUoBecvZQN-91" value="" style="group" vertex="1" connectable="0" parent="1">
          <mxGeometry x="395" y="945.64" width="240" height="214.36" as="geometry" />
        </mxCell>
        <mxCell id="1vpAeoFUaDSUoBecvZQN-92" value="" style="group" vertex="1" connectable="0" parent="1vpAeoFUaDSUoBecvZQN-91">
          <mxGeometry width="240" height="214.36" as="geometry" />
        </mxCell>
        <mxCell id="1vpAeoFUaDSUoBecvZQN-93" value="" style="rounded=0;whiteSpace=wrap;html=1;" vertex="1" parent="1vpAeoFUaDSUoBecvZQN-92">
          <mxGeometry width="240" height="214.36" as="geometry" />
        </mxCell>
        <mxCell id="1vpAeoFUaDSUoBecvZQN-94" value="product_payment_methods" style="text;html=1;align=center;verticalAlign=middle;whiteSpace=wrap;rounded=0;strokeWidth=2;fontSize=15;" vertex="1" parent="1vpAeoFUaDSUoBecvZQN-92">
          <mxGeometry x="60" y="15.311428571428571" width="140" height="30.622857142857143" as="geometry" />
        </mxCell>
        <mxCell id="1vpAeoFUaDSUoBecvZQN-95" value="product_id" style="text;html=1;align=center;verticalAlign=middle;whiteSpace=wrap;rounded=0;strokeWidth=2;fontSize=15;" vertex="1" parent="1vpAeoFUaDSUoBecvZQN-92">
          <mxGeometry x="85" y="73.74000000000001" width="140" height="18.13" as="geometry" />
        </mxCell>
        <mxCell id="1vpAeoFUaDSUoBecvZQN-96" value="" style="endArrow=none;html=1;rounded=0;exitX=0.007;exitY=0.158;exitDx=0;exitDy=0;exitPerimeter=0;entryX=1.001;entryY=0.159;entryDx=0;entryDy=0;entryPerimeter=0;" edge="1" parent="1vpAeoFUaDSUoBecvZQN-92">
          <mxGeometry width="50" height="50" relative="1" as="geometry">
            <mxPoint x="2" y="61.245714285714286" as="sourcePoint" />
            <mxPoint x="240" y="61.245714285714286" as="targetPoint" />
          </mxGeometry>
        </mxCell>
        <mxCell id="1vpAeoFUaDSUoBecvZQN-97" value="PK" style="text;html=1;align=center;verticalAlign=middle;whiteSpace=wrap;rounded=0;fontSize=14;" vertex="1" parent="1vpAeoFUaDSUoBecvZQN-92">
          <mxGeometry x="20" y="73.74000000000001" width="40" height="18.13" as="geometry" />
        </mxCell>
        <mxCell id="1vpAeoFUaDSUoBecvZQN-98" value="payment_method_id" style="text;html=1;align=center;verticalAlign=middle;whiteSpace=wrap;rounded=0;strokeWidth=2;fontSize=15;" vertex="1" parent="1vpAeoFUaDSUoBecvZQN-92">
          <mxGeometry x="85" y="104.36000000000001" width="140" height="26.89" as="geometry" />
        </mxCell>
        <mxCell id="1vpAeoFUaDSUoBecvZQN-99" value="" style="endArrow=none;html=1;rounded=0;exitX=0.007;exitY=0.158;exitDx=0;exitDy=0;exitPerimeter=0;entryX=1.001;entryY=0.159;entryDx=0;entryDy=0;entryPerimeter=0;" edge="1" parent="1vpAeoFUaDSUoBecvZQN-92">
          <mxGeometry width="50" height="50" relative="1" as="geometry">
            <mxPoint x="1" y="137.36285714285714" as="sourcePoint" />
            <mxPoint x="239" y="137.36285714285714" as="targetPoint" />
          </mxGeometry>
        </mxCell>
        <mxCell id="1vpAeoFUaDSUoBecvZQN-100" value="" style="endArrow=none;html=1;rounded=0;" edge="1" parent="1vpAeoFUaDSUoBecvZQN-92">
          <mxGeometry width="50" height="50" relative="1" as="geometry">
            <mxPoint x="70" y="214.36" as="sourcePoint" />
            <mxPoint x="70" y="61.245714285714286" as="targetPoint" />
          </mxGeometry>
        </mxCell>
        <mxCell id="1vpAeoFUaDSUoBecvZQN-101" value="PK" style="text;html=1;align=center;verticalAlign=middle;whiteSpace=wrap;rounded=0;fontSize=14;" vertex="1" parent="1vpAeoFUaDSUoBecvZQN-92">
          <mxGeometry x="20" y="108.19" width="40" height="19.23" as="geometry" />
        </mxCell>
        <mxCell id="1vpAeoFUaDSUoBecvZQN-60" value="" style="group" vertex="1" connectable="0" parent="1">
          <mxGeometry x="400" y="390" width="240" height="140" as="geometry" />
        </mxCell>
        <mxCell id="1vpAeoFUaDSUoBecvZQN-61" value="" style="rounded=0;whiteSpace=wrap;html=1;" vertex="1" parent="1vpAeoFUaDSUoBecvZQN-60">
          <mxGeometry width="240" height="140" as="geometry" />
        </mxCell>
        <mxCell id="1vpAeoFUaDSUoBecvZQN-62" value="merk" style="text;html=1;align=center;verticalAlign=middle;whiteSpace=wrap;rounded=0;strokeWidth=2;fontSize=15;container=0;" vertex="1" parent="1vpAeoFUaDSUoBecvZQN-60">
          <mxGeometry x="60" y="10" width="140" height="20" as="geometry" />
        </mxCell>
        <mxCell id="1vpAeoFUaDSUoBecvZQN-63" value="id" style="text;html=1;align=center;verticalAlign=middle;whiteSpace=wrap;rounded=0;strokeWidth=2;fontSize=15;container=0;" vertex="1" parent="1vpAeoFUaDSUoBecvZQN-60">
          <mxGeometry x="85" y="60" width="140" height="20" as="geometry" />
        </mxCell>
        <mxCell id="1vpAeoFUaDSUoBecvZQN-64" value="" style="endArrow=none;html=1;rounded=0;exitX=0.007;exitY=0.158;exitDx=0;exitDy=0;exitPerimeter=0;entryX=1.001;entryY=0.159;entryDx=0;entryDy=0;entryPerimeter=0;" edge="1" parent="1vpAeoFUaDSUoBecvZQN-60">
          <mxGeometry width="50" height="50" relative="1" as="geometry">
            <mxPoint x="2" y="40" as="sourcePoint" />
            <mxPoint x="240" y="40" as="targetPoint" />
          </mxGeometry>
        </mxCell>
        <mxCell id="1vpAeoFUaDSUoBecvZQN-65" value="PK" style="text;html=1;align=center;verticalAlign=middle;whiteSpace=wrap;rounded=0;fontSize=14;container=0;" vertex="1" parent="1vpAeoFUaDSUoBecvZQN-60">
          <mxGeometry x="20" y="60" width="40" height="20" as="geometry" />
        </mxCell>
        <mxCell id="1vpAeoFUaDSUoBecvZQN-66" value="merk_name" style="text;html=1;align=center;verticalAlign=middle;whiteSpace=wrap;rounded=0;strokeWidth=2;fontSize=15;container=0;" vertex="1" parent="1vpAeoFUaDSUoBecvZQN-60">
          <mxGeometry x="85" y="100" width="140" height="30" as="geometry" />
        </mxCell>
        <mxCell id="1vpAeoFUaDSUoBecvZQN-67" value="" style="endArrow=none;html=1;rounded=0;exitX=0.007;exitY=0.158;exitDx=0;exitDy=0;exitPerimeter=0;entryX=1.001;entryY=0.159;entryDx=0;entryDy=0;entryPerimeter=0;" edge="1" parent="1vpAeoFUaDSUoBecvZQN-60">
          <mxGeometry width="50" height="50" relative="1" as="geometry">
            <mxPoint y="90" as="sourcePoint" />
            <mxPoint x="238" y="90" as="targetPoint" />
          </mxGeometry>
        </mxCell>
        <mxCell id="1vpAeoFUaDSUoBecvZQN-68" value="" style="endArrow=none;html=1;rounded=0;" edge="1" parent="1vpAeoFUaDSUoBecvZQN-60">
          <mxGeometry width="50" height="50" relative="1" as="geometry">
            <mxPoint x="70" y="140" as="sourcePoint" />
            <mxPoint x="70" y="40" as="targetPoint" />
          </mxGeometry>
        </mxCell>
        <mxCell id="1vpAeoFUaDSUoBecvZQN-233" value="" style="group" vertex="1" connectable="0" parent="1">
          <mxGeometry x="40" y="160" width="240" height="330" as="geometry" />
        </mxCell>
        <mxCell id="1vpAeoFUaDSUoBecvZQN-1" value="" style="rounded=0;whiteSpace=wrap;html=1;" vertex="1" parent="1vpAeoFUaDSUoBecvZQN-233">
          <mxGeometry width="240" height="330" as="geometry" />
        </mxCell>
        <mxCell id="1vpAeoFUaDSUoBecvZQN-2" value="" style="endArrow=none;html=1;rounded=0;exitX=0.25;exitY=1;exitDx=0;exitDy=0;" edge="1" parent="1vpAeoFUaDSUoBecvZQN-233" source="1vpAeoFUaDSUoBecvZQN-1">
          <mxGeometry width="50" height="50" relative="1" as="geometry">
            <mxPoint x="360" y="330" as="sourcePoint" />
            <mxPoint x="60" y="50.76923076923077" as="targetPoint" />
          </mxGeometry>
        </mxCell>
        <mxCell id="1vpAeoFUaDSUoBecvZQN-4" value="" style="endArrow=none;html=1;rounded=0;exitX=0.007;exitY=0.158;exitDx=0;exitDy=0;exitPerimeter=0;entryX=1.001;entryY=0.159;entryDx=0;entryDy=0;entryPerimeter=0;" edge="1" parent="1vpAeoFUaDSUoBecvZQN-233" source="1vpAeoFUaDSUoBecvZQN-1" target="1vpAeoFUaDSUoBecvZQN-1">
          <mxGeometry width="50" height="50" relative="1" as="geometry">
            <mxPoint x="360" y="330" as="sourcePoint" />
            <mxPoint x="238" y="79.96153846153845" as="targetPoint" />
          </mxGeometry>
        </mxCell>
        <mxCell id="1vpAeoFUaDSUoBecvZQN-5" value="product" style="text;html=1;align=center;verticalAlign=middle;whiteSpace=wrap;rounded=0;strokeWidth=2;fontSize=15;" vertex="1" parent="1vpAeoFUaDSUoBecvZQN-233">
          <mxGeometry x="50" y="12.692307692307692" width="140" height="25.384615384615383" as="geometry" />
        </mxCell>
        <mxCell id="1vpAeoFUaDSUoBecvZQN-7" value="id" style="text;html=1;align=center;verticalAlign=middle;whiteSpace=wrap;rounded=0;strokeWidth=2;fontSize=15;" vertex="1" parent="1vpAeoFUaDSUoBecvZQN-233">
          <mxGeometry x="70" y="63.46153846153846" width="140" height="38.07692307692307" as="geometry" />
        </mxCell>
        <mxCell id="1vpAeoFUaDSUoBecvZQN-8" value="product_name" style="text;html=1;align=center;verticalAlign=middle;whiteSpace=wrap;rounded=0;strokeWidth=2;fontSize=15;" vertex="1" parent="1vpAeoFUaDSUoBecvZQN-233">
          <mxGeometry x="70" y="160.00307692307692" width="140" height="38.07692307692307" as="geometry" />
        </mxCell>
        <mxCell id="1vpAeoFUaDSUoBecvZQN-9" value="product_type_id" style="text;html=1;align=center;verticalAlign=middle;whiteSpace=wrap;rounded=0;strokeWidth=2;fontSize=15;" vertex="1" parent="1vpAeoFUaDSUoBecvZQN-233">
          <mxGeometry x="70" y="200.00230769230768" width="140" height="38.07692307692307" as="geometry" />
        </mxCell>
        <mxCell id="1vpAeoFUaDSUoBecvZQN-10" value="merk_id" style="text;html=1;align=center;verticalAlign=middle;whiteSpace=wrap;rounded=0;strokeWidth=2;fontSize=15;" vertex="1" parent="1vpAeoFUaDSUoBecvZQN-233">
          <mxGeometry x="70" y="250" width="140" height="31.54" as="geometry" />
        </mxCell>
        <mxCell id="1vpAeoFUaDSUoBecvZQN-11" value="product_description" style="text;html=1;align=center;verticalAlign=middle;whiteSpace=wrap;rounded=0;strokeWidth=2;fontSize=15;" vertex="1" parent="1vpAeoFUaDSUoBecvZQN-233">
          <mxGeometry x="70" y="290" width="140" height="30.77" as="geometry" />
        </mxCell>
        <mxCell id="1vpAeoFUaDSUoBecvZQN-35" value="PK" style="text;html=1;align=center;verticalAlign=middle;whiteSpace=wrap;rounded=0;fontSize=14;" vertex="1" parent="1vpAeoFUaDSUoBecvZQN-233">
          <mxGeometry x="10" y="63.46153846153846" width="40" height="38.07692307692307" as="geometry" />
        </mxCell>
        <mxCell id="1vpAeoFUaDSUoBecvZQN-286" value="user_id" style="text;html=1;align=center;verticalAlign=middle;whiteSpace=wrap;rounded=0;strokeWidth=2;fontSize=15;" vertex="1" parent="1vpAeoFUaDSUoBecvZQN-233">
          <mxGeometry x="70" y="110.00153846153847" width="140" height="38.07692307692307" as="geometry" />
        </mxCell>
        <mxCell id="1vpAeoFUaDSUoBecvZQN-288" value="FK" style="text;html=1;align=center;verticalAlign=middle;whiteSpace=wrap;rounded=0;fontSize=14;" vertex="1" parent="1vpAeoFUaDSUoBecvZQN-233">
          <mxGeometry x="10" y="110.00153846153843" width="40" height="38.07692307692307" as="geometry" />
        </mxCell>
        <mxCell id="1vpAeoFUaDSUoBecvZQN-290" value="" style="endArrow=none;html=1;rounded=0;exitX=0.007;exitY=0.158;exitDx=0;exitDy=0;exitPerimeter=0;entryX=1.001;entryY=0.159;entryDx=0;entryDy=0;entryPerimeter=0;" edge="1" parent="1vpAeoFUaDSUoBecvZQN-233">
          <mxGeometry width="50" height="50" relative="1" as="geometry">
            <mxPoint y="148.08076923076922" as="sourcePoint" />
            <mxPoint x="238" y="148.08076923076922" as="targetPoint" />
          </mxGeometry>
        </mxCell>
        <mxCell id="1vpAeoFUaDSUoBecvZQN-192" value="" style="group" vertex="1" connectable="0" parent="1">
          <mxGeometry x="1130" y="117.05" width="240" height="1000.0000000000001" as="geometry" />
        </mxCell>
        <mxCell id="1vpAeoFUaDSUoBecvZQN-193" value="" style="rounded=0;whiteSpace=wrap;html=1;" vertex="1" parent="1vpAeoFUaDSUoBecvZQN-192">
          <mxGeometry width="244" height="300" as="geometry" />
        </mxCell>
        <mxCell id="1vpAeoFUaDSUoBecvZQN-194" value="transaction_items" style="text;html=1;align=center;verticalAlign=middle;whiteSpace=wrap;rounded=0;strokeWidth=2;fontSize=15;" vertex="1" parent="1vpAeoFUaDSUoBecvZQN-192">
          <mxGeometry x="50" y="9.267579737335835" width="140" height="29.23076923076923" as="geometry" />
        </mxCell>
        <mxCell id="1vpAeoFUaDSUoBecvZQN-195" value="id" style="text;html=1;align=center;verticalAlign=middle;whiteSpace=wrap;rounded=0;strokeWidth=2;fontSize=15;" vertex="1" parent="1vpAeoFUaDSUoBecvZQN-192">
          <mxGeometry x="70" y="54.68292682926829" width="140" height="28.870731707317074" as="geometry" />
        </mxCell>
        <mxCell id="1vpAeoFUaDSUoBecvZQN-196" value="transaction_id" style="text;html=1;align=center;verticalAlign=middle;whiteSpace=wrap;rounded=0;strokeWidth=2;fontSize=15;" vertex="1" parent="1vpAeoFUaDSUoBecvZQN-192">
          <mxGeometry x="70" y="90" width="140" height="32.05" as="geometry" />
        </mxCell>
        <mxCell id="1vpAeoFUaDSUoBecvZQN-197" value="product_id" style="text;html=1;align=center;verticalAlign=middle;whiteSpace=wrap;rounded=0;strokeWidth=2;fontSize=15;" vertex="1" parent="1vpAeoFUaDSUoBecvZQN-192">
          <mxGeometry x="70" y="133.00439024390244" width="140" height="24.950243902439027" as="geometry" />
        </mxCell>
        <mxCell id="1vpAeoFUaDSUoBecvZQN-198" value="quantity" style="text;html=1;align=center;verticalAlign=middle;whiteSpace=wrap;rounded=0;strokeWidth=2;fontSize=15;" vertex="1" parent="1vpAeoFUaDSUoBecvZQN-192">
          <mxGeometry x="70" y="176.68390243902442" width="140" height="29.58439024390244" as="geometry" />
        </mxCell>
        <mxCell id="1vpAeoFUaDSUoBecvZQN-199" value="price" style="text;html=1;align=center;verticalAlign=middle;whiteSpace=wrap;rounded=0;strokeWidth=2;fontSize=15;" vertex="1" parent="1vpAeoFUaDSUoBecvZQN-192">
          <mxGeometry x="70" y="217.90243902439025" width="140" height="28.518536585365855" as="geometry" />
        </mxCell>
        <mxCell id="1vpAeoFUaDSUoBecvZQN-200" value="PK" style="text;html=1;align=center;verticalAlign=middle;whiteSpace=wrap;rounded=0;fontSize=14;" vertex="1" parent="1vpAeoFUaDSUoBecvZQN-192">
          <mxGeometry x="10" y="54.68292682926829" width="40" height="28.870731707317074" as="geometry" />
        </mxCell>
        <mxCell id="1vpAeoFUaDSUoBecvZQN-201" value="" style="endArrow=none;html=1;rounded=0;exitX=0.007;exitY=0.158;exitDx=0;exitDy=0;exitPerimeter=0;entryX=1.001;entryY=0.159;entryDx=0;entryDy=0;entryPerimeter=0;" edge="1" parent="1vpAeoFUaDSUoBecvZQN-192">
          <mxGeometry width="50" height="50" relative="1" as="geometry">
            <mxPoint y="169.89577861163227" as="sourcePoint" />
            <mxPoint x="238" y="169.89577861163227" as="targetPoint" />
          </mxGeometry>
        </mxCell>
        <mxCell id="1vpAeoFUaDSUoBecvZQN-202" value="" style="endArrow=none;html=1;rounded=0;" edge="1" parent="1vpAeoFUaDSUoBecvZQN-192">
          <mxGeometry width="50" height="50" relative="1" as="geometry">
            <mxPoint x="60" y="300" as="sourcePoint" />
            <mxPoint x="60" y="46.34146341463415" as="targetPoint" />
          </mxGeometry>
        </mxCell>
        <mxCell id="1vpAeoFUaDSUoBecvZQN-203" value="" style="endArrow=none;html=1;rounded=0;exitX=0.01;exitY=0.116;exitDx=0;exitDy=0;exitPerimeter=0;entryX=1.004;entryY=0.113;entryDx=0;entryDy=0;entryPerimeter=0;" edge="1" parent="1vpAeoFUaDSUoBecvZQN-192">
          <mxGeometry width="50" height="50" relative="1" as="geometry">
            <mxPoint x="1.4600000000000546" y="40.899999999999956" as="sourcePoint" />
            <mxPoint x="243.99600000000012" y="39.999999999999865" as="targetPoint" />
          </mxGeometry>
        </mxCell>
        <mxCell id="1vpAeoFUaDSUoBecvZQN-209" value="FK" style="text;html=1;align=center;verticalAlign=middle;whiteSpace=wrap;rounded=0;fontSize=14;" vertex="1" parent="1vpAeoFUaDSUoBecvZQN-192">
          <mxGeometry x="10" y="91.59292682926821" width="40" height="28.870731707317074" as="geometry" />
        </mxCell>
        <mxCell id="1vpAeoFUaDSUoBecvZQN-210" value="FK" style="text;html=1;align=center;verticalAlign=middle;whiteSpace=wrap;rounded=0;fontSize=14;" vertex="1" parent="1vpAeoFUaDSUoBecvZQN-192">
          <mxGeometry x="10" y="130.00292682926815" width="40" height="28.870731707317074" as="geometry" />
        </mxCell>
        <mxCell id="1vpAeoFUaDSUoBecvZQN-131" value="" style="group" vertex="1" connectable="0" parent="1vpAeoFUaDSUoBecvZQN-192">
          <mxGeometry x="4" y="680.8500000000001" width="240" height="240" as="geometry" />
        </mxCell>
        <mxCell id="1vpAeoFUaDSUoBecvZQN-132" value="" style="group" vertex="1" connectable="0" parent="1vpAeoFUaDSUoBecvZQN-131">
          <mxGeometry width="240" height="240" as="geometry" />
        </mxCell>
        <mxCell id="1vpAeoFUaDSUoBecvZQN-133" value="" style="rounded=0;whiteSpace=wrap;html=1;" vertex="1" parent="1vpAeoFUaDSUoBecvZQN-132">
          <mxGeometry width="240" height="240" as="geometry" />
        </mxCell>
        <mxCell id="1vpAeoFUaDSUoBecvZQN-134" value="transactions" style="text;html=1;align=center;verticalAlign=middle;whiteSpace=wrap;rounded=0;strokeWidth=2;fontSize=15;" vertex="1" parent="1vpAeoFUaDSUoBecvZQN-132">
          <mxGeometry x="60" y="10" width="140" height="20" as="geometry" />
        </mxCell>
        <mxCell id="1vpAeoFUaDSUoBecvZQN-332" style="edgeStyle=orthogonalEdgeStyle;rounded=0;orthogonalLoop=1;jettySize=auto;html=1;exitX=1;exitY=0.289;exitDx=0;exitDy=0;exitPerimeter=0;" edge="1" parent="1vpAeoFUaDSUoBecvZQN-132" source="1vpAeoFUaDSUoBecvZQN-133">
          <mxGeometry relative="1" as="geometry">
            <mxPoint x="426" y="-307.9000000000001" as="targetPoint" />
            <mxPoint x="236" y="70.09999999999991" as="sourcePoint" />
            <Array as="points">
              <mxPoint x="336" y="69" />
              <mxPoint x="336" y="-308" />
            </Array>
          </mxGeometry>
        </mxCell>
        <mxCell id="1vpAeoFUaDSUoBecvZQN-135" value="id" style="text;html=1;align=center;verticalAlign=middle;whiteSpace=wrap;rounded=0;strokeWidth=2;fontSize=15;" vertex="1" parent="1vpAeoFUaDSUoBecvZQN-132">
          <mxGeometry x="85" y="60" width="140" height="20" as="geometry" />
        </mxCell>
        <mxCell id="1vpAeoFUaDSUoBecvZQN-136" value="" style="endArrow=none;html=1;rounded=0;exitX=0.007;exitY=0.158;exitDx=0;exitDy=0;exitPerimeter=0;entryX=1.001;entryY=0.159;entryDx=0;entryDy=0;entryPerimeter=0;" edge="1" parent="1vpAeoFUaDSUoBecvZQN-132">
          <mxGeometry width="50" height="50" relative="1" as="geometry">
            <mxPoint x="2" y="40" as="sourcePoint" />
            <mxPoint x="240" y="40" as="targetPoint" />
          </mxGeometry>
        </mxCell>
        <mxCell id="1vpAeoFUaDSUoBecvZQN-137" value="PK" style="text;html=1;align=center;verticalAlign=middle;whiteSpace=wrap;rounded=0;fontSize=14;" vertex="1" parent="1vpAeoFUaDSUoBecvZQN-132">
          <mxGeometry x="20" y="60" width="40" height="20" as="geometry" />
        </mxCell>
        <mxCell id="1vpAeoFUaDSUoBecvZQN-138" value="user_id" style="text;html=1;align=center;verticalAlign=middle;whiteSpace=wrap;rounded=0;strokeWidth=2;fontSize=15;" vertex="1" parent="1vpAeoFUaDSUoBecvZQN-132">
          <mxGeometry x="85" y="90" width="140" height="30" as="geometry" />
        </mxCell>
        <mxCell id="1vpAeoFUaDSUoBecvZQN-140" value="" style="endArrow=none;html=1;rounded=0;" edge="1" parent="1vpAeoFUaDSUoBecvZQN-132">
          <mxGeometry width="50" height="50" relative="1" as="geometry">
            <mxPoint x="70" y="240" as="sourcePoint" />
            <mxPoint x="70" y="40" as="targetPoint" />
          </mxGeometry>
        </mxCell>
        <mxCell id="1vpAeoFUaDSUoBecvZQN-142" value="FK" style="text;html=1;align=center;verticalAlign=middle;whiteSpace=wrap;rounded=0;fontSize=14;" vertex="1" parent="1vpAeoFUaDSUoBecvZQN-132">
          <mxGeometry x="20" y="95" width="40" height="20" as="geometry" />
        </mxCell>
        <mxCell id="1vpAeoFUaDSUoBecvZQN-161" value="" style="endArrow=none;html=1;rounded=0;exitX=0.007;exitY=0.158;exitDx=0;exitDy=0;exitPerimeter=0;entryX=1.001;entryY=0.159;entryDx=0;entryDy=0;entryPerimeter=0;" edge="1" parent="1vpAeoFUaDSUoBecvZQN-132">
          <mxGeometry width="50" height="50" relative="1" as="geometry">
            <mxPoint y="130" as="sourcePoint" />
            <mxPoint x="238" y="130" as="targetPoint" />
          </mxGeometry>
        </mxCell>
        <mxCell id="1vpAeoFUaDSUoBecvZQN-162" value="transaction_date" style="text;html=1;align=center;verticalAlign=middle;whiteSpace=wrap;rounded=0;strokeWidth=2;fontSize=15;" vertex="1" parent="1vpAeoFUaDSUoBecvZQN-132">
          <mxGeometry x="80" y="150" width="140" height="20" as="geometry" />
        </mxCell>
        <mxCell id="1vpAeoFUaDSUoBecvZQN-175" value="total_amount" style="text;html=1;align=center;verticalAlign=middle;whiteSpace=wrap;rounded=0;strokeWidth=2;fontSize=15;" vertex="1" parent="1vpAeoFUaDSUoBecvZQN-132">
          <mxGeometry x="80" y="190" width="140" height="20" as="geometry" />
        </mxCell>
        <mxCell id="1vpAeoFUaDSUoBecvZQN-284" style="edgeStyle=orthogonalEdgeStyle;rounded=0;orthogonalLoop=1;jettySize=auto;html=1;entryX=1;entryY=0.25;entryDx=0;entryDy=0;exitX=1.004;exitY=0.22;exitDx=0;exitDy=0;exitPerimeter=0;" edge="1" parent="1vpAeoFUaDSUoBecvZQN-192" source="1vpAeoFUaDSUoBecvZQN-133" target="1vpAeoFUaDSUoBecvZQN-193">
          <mxGeometry relative="1" as="geometry">
            <Array as="points">
              <mxPoint x="247" y="734" />
              <mxPoint x="300" y="733" />
              <mxPoint x="300" y="75" />
            </Array>
          </mxGeometry>
        </mxCell>
        <mxCell id="1vpAeoFUaDSUoBecvZQN-212" value="" style="group" vertex="1" connectable="0" parent="1">
          <mxGeometry x="840" y="474.79999999999995" width="240" height="380" as="geometry" />
        </mxCell>
        <mxCell id="1vpAeoFUaDSUoBecvZQN-213" value="" style="group" vertex="1" connectable="0" parent="1vpAeoFUaDSUoBecvZQN-212">
          <mxGeometry width="240" height="380" as="geometry" />
        </mxCell>
        <mxCell id="1vpAeoFUaDSUoBecvZQN-214" value="" style="rounded=0;whiteSpace=wrap;html=1;" vertex="1" parent="1vpAeoFUaDSUoBecvZQN-213">
          <mxGeometry width="244" height="300" as="geometry" />
        </mxCell>
        <mxCell id="1vpAeoFUaDSUoBecvZQN-215" value="transaction_payments" style="text;html=1;align=center;verticalAlign=middle;whiteSpace=wrap;rounded=0;strokeWidth=2;fontSize=15;" vertex="1" parent="1vpAeoFUaDSUoBecvZQN-213">
          <mxGeometry x="50" y="9.267579737335835" width="140" height="29.23076923076923" as="geometry" />
        </mxCell>
        <mxCell id="1vpAeoFUaDSUoBecvZQN-216" value="id" style="text;html=1;align=center;verticalAlign=middle;whiteSpace=wrap;rounded=0;strokeWidth=2;fontSize=15;" vertex="1" parent="1vpAeoFUaDSUoBecvZQN-213">
          <mxGeometry x="78" y="54.68292682926829" width="140" height="28.870731707317074" as="geometry" />
        </mxCell>
        <mxCell id="1vpAeoFUaDSUoBecvZQN-217" value="transaction_id" style="text;html=1;align=center;verticalAlign=middle;whiteSpace=wrap;rounded=0;strokeWidth=2;fontSize=15;" vertex="1" parent="1vpAeoFUaDSUoBecvZQN-213">
          <mxGeometry x="76" y="90" width="140" height="32.05" as="geometry" />
        </mxCell>
        <mxCell id="1vpAeoFUaDSUoBecvZQN-218" value="payment_method_id" style="text;html=1;align=center;verticalAlign=middle;whiteSpace=wrap;rounded=0;strokeWidth=2;fontSize=15;" vertex="1" parent="1vpAeoFUaDSUoBecvZQN-213">
          <mxGeometry x="81" y="133.00439024390244" width="140" height="24.950243902439027" as="geometry" />
        </mxCell>
        <mxCell id="1vpAeoFUaDSUoBecvZQN-219" value="payment_amount" style="text;html=1;align=center;verticalAlign=middle;whiteSpace=wrap;rounded=0;strokeWidth=2;fontSize=15;" vertex="1" parent="1vpAeoFUaDSUoBecvZQN-213">
          <mxGeometry x="76" y="215.20390243902443" width="140" height="29.58439024390244" as="geometry" />
        </mxCell>
        <mxCell id="1vpAeoFUaDSUoBecvZQN-221" value="PK" style="text;html=1;align=center;verticalAlign=middle;whiteSpace=wrap;rounded=0;fontSize=14;" vertex="1" parent="1vpAeoFUaDSUoBecvZQN-213">
          <mxGeometry x="10" y="54.68292682926829" width="40" height="28.870731707317074" as="geometry" />
        </mxCell>
        <mxCell id="1vpAeoFUaDSUoBecvZQN-222" value="" style="endArrow=none;html=1;rounded=0;exitX=0.007;exitY=0.158;exitDx=0;exitDy=0;exitPerimeter=0;entryX=1.001;entryY=0.159;entryDx=0;entryDy=0;entryPerimeter=0;" edge="1" parent="1vpAeoFUaDSUoBecvZQN-213">
          <mxGeometry width="50" height="50" relative="1" as="geometry">
            <mxPoint y="205.19577861163228" as="sourcePoint" />
            <mxPoint x="238" y="205.19577861163228" as="targetPoint" />
          </mxGeometry>
        </mxCell>
        <mxCell id="1vpAeoFUaDSUoBecvZQN-223" value="" style="endArrow=none;html=1;rounded=0;" edge="1" parent="1vpAeoFUaDSUoBecvZQN-213">
          <mxGeometry width="50" height="50" relative="1" as="geometry">
            <mxPoint x="60" y="300" as="sourcePoint" />
            <mxPoint x="60" y="46.34146341463415" as="targetPoint" />
          </mxGeometry>
        </mxCell>
        <mxCell id="1vpAeoFUaDSUoBecvZQN-224" value="" style="endArrow=none;html=1;rounded=0;exitX=0.01;exitY=0.116;exitDx=0;exitDy=0;exitPerimeter=0;entryX=1.004;entryY=0.113;entryDx=0;entryDy=0;entryPerimeter=0;" edge="1" parent="1vpAeoFUaDSUoBecvZQN-213">
          <mxGeometry width="50" height="50" relative="1" as="geometry">
            <mxPoint x="1.4600000000000546" y="40.899999999999956" as="sourcePoint" />
            <mxPoint x="243.99600000000012" y="39.999999999999865" as="targetPoint" />
          </mxGeometry>
        </mxCell>
        <mxCell id="1vpAeoFUaDSUoBecvZQN-225" value="FK" style="text;html=1;align=center;verticalAlign=middle;whiteSpace=wrap;rounded=0;fontSize=14;" vertex="1" parent="1vpAeoFUaDSUoBecvZQN-213">
          <mxGeometry x="10" y="91.59292682926821" width="40" height="28.870731707317074" as="geometry" />
        </mxCell>
        <mxCell id="1vpAeoFUaDSUoBecvZQN-226" value="FK" style="text;html=1;align=center;verticalAlign=middle;whiteSpace=wrap;rounded=0;fontSize=14;" vertex="1" parent="1vpAeoFUaDSUoBecvZQN-213">
          <mxGeometry x="10" y="130.00292682926815" width="40" height="28.870731707317074" as="geometry" />
        </mxCell>
        <mxCell id="1vpAeoFUaDSUoBecvZQN-338" value="transaction_detail_id" style="text;html=1;align=center;verticalAlign=middle;whiteSpace=wrap;rounded=0;strokeWidth=2;fontSize=15;" vertex="1" parent="1vpAeoFUaDSUoBecvZQN-213">
          <mxGeometry x="81" y="165.20439024390248" width="140" height="24.950243902439027" as="geometry" />
        </mxCell>
        <mxCell id="1vpAeoFUaDSUoBecvZQN-339" value="FK" style="text;html=1;align=center;verticalAlign=middle;whiteSpace=wrap;rounded=0;fontSize=14;" vertex="1" parent="1vpAeoFUaDSUoBecvZQN-213">
          <mxGeometry x="10" y="163.24292682926819" width="40" height="28.870731707317074" as="geometry" />
        </mxCell>
        <mxCell id="1vpAeoFUaDSUoBecvZQN-283" style="edgeStyle=orthogonalEdgeStyle;rounded=0;orthogonalLoop=1;jettySize=auto;html=1;entryX=0;entryY=0.5;entryDx=0;entryDy=0;" edge="1" parent="1" target="1vpAeoFUaDSUoBecvZQN-133">
          <mxGeometry relative="1" as="geometry">
            <mxPoint x="270" y="650" as="sourcePoint" />
          </mxGeometry>
        </mxCell>
        <mxCell id="1vpAeoFUaDSUoBecvZQN-292" style="edgeStyle=orthogonalEdgeStyle;rounded=0;orthogonalLoop=1;jettySize=auto;html=1;" edge="1" parent="1">
          <mxGeometry relative="1" as="geometry">
            <mxPoint x="270" y="640" as="sourcePoint" />
            <mxPoint x="281" y="290" as="targetPoint" />
            <Array as="points">
              <mxPoint x="320" y="640" />
              <mxPoint x="320" y="290" />
              <mxPoint x="281" y="290" />
            </Array>
          </mxGeometry>
        </mxCell>
        <mxCell id="1vpAeoFUaDSUoBecvZQN-293" style="edgeStyle=orthogonalEdgeStyle;rounded=0;orthogonalLoop=1;jettySize=auto;html=1;entryX=0;entryY=0.5;entryDx=0;entryDy=0;" edge="1" parent="1" source="1vpAeoFUaDSUoBecvZQN-10" target="1vpAeoFUaDSUoBecvZQN-61">
          <mxGeometry relative="1" as="geometry" />
        </mxCell>
        <mxCell id="1vpAeoFUaDSUoBecvZQN-294" style="edgeStyle=orthogonalEdgeStyle;rounded=0;orthogonalLoop=1;jettySize=auto;html=1;entryX=0;entryY=0.5;entryDx=0;entryDy=0;" edge="1" parent="1" source="1vpAeoFUaDSUoBecvZQN-9" target="1vpAeoFUaDSUoBecvZQN-12">
          <mxGeometry relative="1" as="geometry" />
        </mxCell>
        <mxCell id="1vpAeoFUaDSUoBecvZQN-296" style="edgeStyle=orthogonalEdgeStyle;rounded=0;orthogonalLoop=1;jettySize=auto;html=1;exitX=1;exitY=0.465;exitDx=0;exitDy=0;exitPerimeter=0;" edge="1" parent="1" source="1vpAeoFUaDSUoBecvZQN-71" target="1vpAeoFUaDSUoBecvZQN-93">
          <mxGeometry relative="1" as="geometry">
            <mxPoint x="650" y="1060" as="targetPoint" />
            <Array as="points">
              <mxPoint x="660" y="733" />
              <mxPoint x="660" y="1060" />
            </Array>
          </mxGeometry>
        </mxCell>
        <mxCell id="1vpAeoFUaDSUoBecvZQN-304" style="edgeStyle=orthogonalEdgeStyle;rounded=0;orthogonalLoop=1;jettySize=auto;html=1;entryX=1;entryY=0.25;entryDx=0;entryDy=0;" edge="1" parent="1" target="1vpAeoFUaDSUoBecvZQN-1">
          <mxGeometry relative="1" as="geometry">
            <mxPoint x="1130" y="262" as="sourcePoint" />
            <Array as="points">
              <mxPoint x="1060" y="262" />
              <mxPoint x="1060" y="30" />
              <mxPoint x="390" y="30" />
              <mxPoint x="390" y="243" />
            </Array>
          </mxGeometry>
        </mxCell>
        <mxCell id="1vpAeoFUaDSUoBecvZQN-306" style="edgeStyle=orthogonalEdgeStyle;rounded=0;orthogonalLoop=1;jettySize=auto;html=1;entryX=0.5;entryY=0;entryDx=0;entryDy=0;" edge="1" parent="1" target="1vpAeoFUaDSUoBecvZQN-71">
          <mxGeometry relative="1" as="geometry">
            <mxPoint x="839" y="560" as="sourcePoint" />
            <Array as="points">
              <mxPoint x="720" y="560" />
              <mxPoint x="720" y="600" />
              <mxPoint x="515" y="600" />
            </Array>
          </mxGeometry>
        </mxCell>
        <mxCell id="1vpAeoFUaDSUoBecvZQN-307" style="edgeStyle=orthogonalEdgeStyle;rounded=0;orthogonalLoop=1;jettySize=auto;html=1;entryX=0.548;entryY=0.01;entryDx=0;entryDy=0;entryPerimeter=0;" edge="1" parent="1" source="1vpAeoFUaDSUoBecvZQN-214" target="1vpAeoFUaDSUoBecvZQN-133">
          <mxGeometry relative="1" as="geometry" />
        </mxCell>
        <mxCell id="1vpAeoFUaDSUoBecvZQN-309" value="" style="group" vertex="1" connectable="0" parent="1">
          <mxGeometry x="1560" y="389.99999999999994" width="250" height="380" as="geometry" />
        </mxCell>
        <mxCell id="1vpAeoFUaDSUoBecvZQN-310" value="" style="group" vertex="1" connectable="0" parent="1vpAeoFUaDSUoBecvZQN-309">
          <mxGeometry width="250" height="380" as="geometry" />
        </mxCell>
        <mxCell id="1vpAeoFUaDSUoBecvZQN-311" value="" style="rounded=0;whiteSpace=wrap;html=1;" vertex="1" parent="1vpAeoFUaDSUoBecvZQN-310">
          <mxGeometry width="250" height="340" as="geometry" />
        </mxCell>
        <mxCell id="1vpAeoFUaDSUoBecvZQN-312" value="transaction_detail" style="text;html=1;align=center;verticalAlign=middle;whiteSpace=wrap;rounded=0;strokeWidth=2;fontSize=15;" vertex="1" parent="1vpAeoFUaDSUoBecvZQN-310">
          <mxGeometry x="50" y="9.267579737335835" width="140" height="29.23076923076923" as="geometry" />
        </mxCell>
        <mxCell id="1vpAeoFUaDSUoBecvZQN-313" value="id" style="text;html=1;align=center;verticalAlign=middle;whiteSpace=wrap;rounded=0;strokeWidth=2;fontSize=15;" vertex="1" parent="1vpAeoFUaDSUoBecvZQN-310">
          <mxGeometry x="78" y="54.68292682926829" width="140" height="28.870731707317074" as="geometry" />
        </mxCell>
        <mxCell id="1vpAeoFUaDSUoBecvZQN-314" value="transaction_id" style="text;html=1;align=center;verticalAlign=middle;whiteSpace=wrap;rounded=0;strokeWidth=2;fontSize=15;" vertex="1" parent="1vpAeoFUaDSUoBecvZQN-310">
          <mxGeometry x="76" y="90" width="140" height="32.05" as="geometry" />
        </mxCell>
        <mxCell id="1vpAeoFUaDSUoBecvZQN-315" value="product_id" style="text;html=1;align=center;verticalAlign=middle;whiteSpace=wrap;rounded=0;strokeWidth=2;fontSize=15;" vertex="1" parent="1vpAeoFUaDSUoBecvZQN-310">
          <mxGeometry x="81" y="133.00439024390244" width="140" height="24.950243902439027" as="geometry" />
        </mxCell>
        <mxCell id="1vpAeoFUaDSUoBecvZQN-316" value="created_at" style="text;html=1;align=center;verticalAlign=middle;whiteSpace=wrap;rounded=0;strokeWidth=2;fontSize=15;" vertex="1" parent="1vpAeoFUaDSUoBecvZQN-310">
          <mxGeometry x="81" y="260.0039024390244" width="140" height="29.58439024390244" as="geometry" />
        </mxCell>
        <mxCell id="1vpAeoFUaDSUoBecvZQN-317" value="PK" style="text;html=1;align=center;verticalAlign=middle;whiteSpace=wrap;rounded=0;fontSize=14;" vertex="1" parent="1vpAeoFUaDSUoBecvZQN-310">
          <mxGeometry x="10" y="54.68292682926829" width="40" height="28.870731707317074" as="geometry" />
        </mxCell>
        <mxCell id="1vpAeoFUaDSUoBecvZQN-318" value="" style="endArrow=none;html=1;rounded=0;exitX=0.007;exitY=0.158;exitDx=0;exitDy=0;exitPerimeter=0;entryX=1.001;entryY=0.159;entryDx=0;entryDy=0;entryPerimeter=0;" edge="1" parent="1vpAeoFUaDSUoBecvZQN-310">
          <mxGeometry width="50" height="50" relative="1" as="geometry">
            <mxPoint y="169.89577861163227" as="sourcePoint" />
            <mxPoint x="238" y="169.89577861163227" as="targetPoint" />
          </mxGeometry>
        </mxCell>
        <mxCell id="1vpAeoFUaDSUoBecvZQN-319" value="" style="endArrow=none;html=1;rounded=0;exitX=0.234;exitY=1;exitDx=0;exitDy=0;exitPerimeter=0;" edge="1" parent="1vpAeoFUaDSUoBecvZQN-310" source="1vpAeoFUaDSUoBecvZQN-311">
          <mxGeometry width="50" height="50" relative="1" as="geometry">
            <mxPoint x="60" y="300" as="sourcePoint" />
            <mxPoint x="60" y="46.34146341463415" as="targetPoint" />
          </mxGeometry>
        </mxCell>
        <mxCell id="1vpAeoFUaDSUoBecvZQN-320" value="" style="endArrow=none;html=1;rounded=0;exitX=0.01;exitY=0.116;exitDx=0;exitDy=0;exitPerimeter=0;entryX=1.004;entryY=0.113;entryDx=0;entryDy=0;entryPerimeter=0;" edge="1" parent="1vpAeoFUaDSUoBecvZQN-310">
          <mxGeometry width="50" height="50" relative="1" as="geometry">
            <mxPoint x="1.4600000000000546" y="40.899999999999956" as="sourcePoint" />
            <mxPoint x="243.99600000000012" y="39.999999999999865" as="targetPoint" />
          </mxGeometry>
        </mxCell>
        <mxCell id="1vpAeoFUaDSUoBecvZQN-321" value="FK" style="text;html=1;align=center;verticalAlign=middle;whiteSpace=wrap;rounded=0;fontSize=14;" vertex="1" parent="1vpAeoFUaDSUoBecvZQN-310">
          <mxGeometry x="10" y="91.59292682926821" width="40" height="28.870731707317074" as="geometry" />
        </mxCell>
        <mxCell id="1vpAeoFUaDSUoBecvZQN-322" value="FK" style="text;html=1;align=center;verticalAlign=middle;whiteSpace=wrap;rounded=0;fontSize=14;" vertex="1" parent="1vpAeoFUaDSUoBecvZQN-310">
          <mxGeometry x="10" y="130.00292682926815" width="40" height="28.870731707317074" as="geometry" />
        </mxCell>
        <mxCell id="1vpAeoFUaDSUoBecvZQN-328" value="updated_at" style="text;html=1;align=center;verticalAlign=middle;whiteSpace=wrap;rounded=0;strokeWidth=2;fontSize=15;" vertex="1" parent="1vpAeoFUaDSUoBecvZQN-310">
          <mxGeometry x="81" y="300.00390243902444" width="140" height="29.58439024390244" as="geometry" />
        </mxCell>
        <mxCell id="1vpAeoFUaDSUoBecvZQN-330" value="unit_price " style="text;html=1;align=center;verticalAlign=middle;whiteSpace=wrap;rounded=0;strokeWidth=2;fontSize=15;" vertex="1" parent="1vpAeoFUaDSUoBecvZQN-310">
          <mxGeometry x="78" y="180.00390243902453" width="140" height="29.58439024390244" as="geometry" />
        </mxCell>
        <mxCell id="1vpAeoFUaDSUoBecvZQN-331" value="total_price  " style="text;html=1;align=center;verticalAlign=middle;whiteSpace=wrap;rounded=0;strokeWidth=2;fontSize=15;" vertex="1" parent="1vpAeoFUaDSUoBecvZQN-310">
          <mxGeometry x="78" y="220.00390243902447" width="140" height="29.58439024390244" as="geometry" />
        </mxCell>
        <mxCell id="1vpAeoFUaDSUoBecvZQN-336" style="edgeStyle=orthogonalEdgeStyle;rounded=0;orthogonalLoop=1;jettySize=auto;html=1;entryX=-0.002;entryY=0.422;entryDx=0;entryDy=0;entryPerimeter=0;" edge="1" parent="1" source="1vpAeoFUaDSUoBecvZQN-1" target="1vpAeoFUaDSUoBecvZQN-311">
          <mxGeometry relative="1" as="geometry">
            <mxPoint x="280" y="270" as="sourcePoint" />
            <Array as="points">
              <mxPoint x="1100" y="280" />
              <mxPoint x="1100" y="533" />
            </Array>
          </mxGeometry>
        </mxCell>
      </root>
    </mxGraphModel>
  </diagram>
</mxfile>
